<svg width="48" height="48" viewBox="0 0 48 48" fill="none" xmlns="http://www.w3.org/2000/svg">
<g clip-path="url(#clip0_2460_7170)">
<rect width="48" height="48" rx="24" fill="#262649"/>
<path d="M28.4342 13.7969C30.8491 16.2956 31.4379 22.1704 32.5582 26.0495C33.075 30.4461 32.49 38.6316 28.4342 43.1043L19.716 49.9285L16.3532 38.6363C12.3025 32.9471 14.1256 20.003 28.4342 13.7969Z" fill="#FF9F1C"/>
<path d="M28.4222 13.8088C30.837 16.3075 31.438 22.1683 32.5583 26.0475C33.075 30.444 32.49 38.6295 28.4342 43.1022L19.716 49.9264L20.7504 39.9272C16.6997 34.2381 20.7383 22.3564 28.4222 13.8088Z" fill="#F8961E"/>
<path d="M28.6924 14.1584C28.7806 14.0522 28.7659 13.8946 28.6597 13.8064C28.5534 13.7183 28.3958 13.7329 28.3076 13.8392L28.6924 14.1584ZM28.3076 13.8392C23.4715 19.6679 20.6686 24.2801 19.5946 29.2963C18.5206 34.3122 19.1825 39.6983 21.2008 47.0589L21.683 46.9267C19.6716 39.591 19.0349 34.2987 20.0835 29.401C21.1321 24.5035 23.8732 19.9668 28.6924 14.1584L28.3076 13.8392Z" fill="#E98B1B"/>
<path d="M14.975 28.2859C12.5141 25.6705 12.8472 19.6273 19.2359 20.1733C22.1702 21.2835 19.0263 28.717 14.975 28.2859Z" fill="white"/>
<ellipse cx="15.2607" cy="22.6767" rx="0.457883" ry="0.644043" transform="rotate(36.7945 15.2607 22.6767)" fill="#00C9F5"/>
<ellipse cx="15.2742" cy="22.7128" rx="0.343051" ry="0.550646" transform="rotate(36.7945 15.2742 22.7128)" fill="black"/>
<path d="M33.4426 26.5962C33.1442 29.3412 31.4386 30.2804 28.7264 30.7118C25.9814 30.4134 22.9271 27.1135 24.3057 23.6653C25.5122 21.5973 26.7142 20.5226 29.4592 20.8209C32.2042 21.1193 33.7409 23.8512 33.4426 26.5962Z" fill="white"/>
<ellipse cx="30.9523" cy="24.1761" rx="0.495206" ry="0.69654" transform="rotate(158.339 30.9523 24.1761)" fill="#00C9F5"/>
<ellipse cx="30.91" cy="24.1694" rx="0.371013" ry="0.59553" transform="rotate(158.339 30.91 24.1694)" fill="black"/>
<path d="M18.8058 29.8575C21.065 30.2645 19.8172 32.6936 17.8235 32.5644C10.2251 32.0718 11.1892 28.0212 14.0318 28.9964C12.6461 28.733 12.1451 29.8876 13.1232 30.2635C14.2012 30.6777 15.9798 30.7095 18.8058 29.8575Z" fill="#553110"/>
<path d="M21.3767 29.9821C18.574 29.3356 18.8119 32.7491 21.1717 33.5844C30.1654 36.7679 31.5748 31.7861 27.8197 31.506C29.5456 31.8867 29.0324 33.3048 27.7205 33.2548C26.2745 33.1997 24.2105 32.3583 21.3767 29.9821Z" fill="#582F0E"/>
<line x1="15.5036" y1="41.0645" x2="9.55683" y2="47.1093" stroke="#DADADA" stroke-width="0.5" stroke-linecap="round"/>
<line x1="9.49361" y1="47.1238" x2="7.73241" y2="46.6146" stroke="#DADADA" stroke-width="0.5" stroke-linecap="round"/>
<mask id="path-15-inside-1_2460_7170" fill="white">
<path fill-rule="evenodd" clip-rule="evenodd" d="M33.5137 36.354C37.7834 33.4417 40.3176 28.5999 40.3176 23.1193C40.3176 14.2169 33.6309 7 23.6811 7C13.7313 7 7.30322 14.2169 7.30322 23.1193C7.30322 28.6645 9.79725 33.5557 14.0829 36.4562C21.1024 37.0739 25.0031 37.0646 33.5137 36.354Z"/>
</mask>
<path fill-rule="evenodd" clip-rule="evenodd" d="M33.5137 36.354C37.7834 33.4417 40.3176 28.5999 40.3176 23.1193C40.3176 14.2169 33.6309 7 23.6811 7C13.7313 7 7.30322 14.2169 7.30322 23.1193C7.30322 28.6645 9.79725 33.5557 14.0829 36.4562C21.1024 37.0739 25.0031 37.0646 33.5137 36.354Z" fill="#505050" fill-opacity="0.1"/>
<path d="M33.5137 36.354L33.5553 36.8523L33.6866 36.8413L33.7954 36.7671L33.5137 36.354ZM14.0829 36.4562L13.8026 36.8703L13.91 36.9429L14.0391 36.9543L14.0829 36.4562ZM39.8176 23.1193C39.8176 28.4417 37.3594 33.1257 33.2319 35.941L33.7954 36.7671C38.2074 33.7577 40.8176 28.7582 40.8176 23.1193H39.8176ZM23.6811 7.5C33.3545 7.5 39.8176 14.4927 39.8176 23.1193H40.8176C40.8176 13.941 33.9073 6.5 23.6811 6.5V7.5ZM7.80322 23.1193C7.80322 14.4821 14.0182 7.5 23.6811 7.5V6.5C13.4444 6.5 6.80322 13.9516 6.80322 23.1193H7.80322ZM14.3631 36.0421C10.2255 33.2419 7.80322 28.5118 7.80322 23.1193H6.80322C6.80322 28.8172 9.36895 33.8696 13.8026 36.8703L14.3631 36.0421ZM14.0391 36.9543C21.0914 37.5749 25.0211 37.5648 33.5553 36.8523L33.4721 35.8558C24.985 36.5644 21.1133 36.5729 14.1267 35.9582L14.0391 36.9543Z" fill="white" mask="url(#path-15-inside-1_2460_7170)"/>
<ellipse cx="1.81019" cy="5.08577" rx="1.81019" ry="5.08577" transform="matrix(-0.738594 -0.67415 -0.67415 0.738594 18.4675 11.9258)" fill="white" fill-opacity="0.5"/>
<circle cx="0.430998" cy="0.430998" r="0.430998" transform="matrix(-1 0 0 1 9.80298 18.5547)" fill="white" fill-opacity="0.5"/>
<path d="M14.4829 37.5117C14.4829 47.7948 13.1901 55.6136 29.1368 55.6136C29.1368 55.6136 32.0676 43.3668 32.0676 37.5117H14.4829Z" fill="#EDEDED"/>
<path d="M29.1368 37.5117C29.1368 37.5117 27.3014 46.5627 29.1368 55.6136C29.1368 55.6136 32.0676 43.3668 32.0676 37.5117H29.1368Z" fill="#CFCFCF"/>
<path d="M13.3372 36.3909C20.9227 37.0805 24.8017 37.0805 33.9388 36.3047L32.3872 38.6321C21.6985 38.2873 19.8021 37.9425 14.113 38.6321L13.3372 36.3909Z" fill="#505050"/>
<path d="M15.6053 40.2534C18.2816 40.2605 19.5453 40.1216 22.3159 40.0838L22.4716 40.3595L22.4716 43.9398L22.3157 44.0391C19.8095 43.9003 18.2373 43.9839 15.3822 44.0395L15.6053 40.2534Z" fill="#7B7B7B"/>
<path d="M15.4038 40.1243C18.0137 40.1633 19.5533 39.9871 22.3303 40.0872L22.3132 44.0207C18.9356 43.9268 17.3268 44.0754 15.3866 44.0579C15.2708 42.4384 15.2817 41.5858 15.4038 40.1243Z" fill="#505050"/>
<circle cx="19.6844" cy="41.9932" r="1.61042" fill="#2F2F2F"/>
<circle cx="19.6843" cy="41.9912" r="1.30367" fill="#717171"/>
<path d="M16.6308 41.9158C16.935 41.9158 17.0439 41.6076 17.0439 41.2274C17.0439 40.8473 16.935 40.5391 16.6308 40.5391H16.4932V41.9158H16.6308Z" fill="#A40808"/>
<ellipse cx="16.4929" cy="41.2274" rx="0.413021" ry="0.688369" fill="#C10A0A"/>
<path d="M16.6308 43.5955C16.935 43.5955 17.0439 43.2873 17.0439 42.9071C17.0439 42.5269 16.935 42.2188 16.6308 42.2188H16.4932V43.5955H16.6308Z" fill="#C9AA05"/>
<ellipse cx="16.4931" cy="42.9071" rx="0.413021" ry="0.688369" fill="#D9B703"/>
<line x1="28.8529" y1="41.2245" x2="23.0186" y2="47.378" stroke="#DADADA" stroke-width="0.5" stroke-linecap="round"/>
<line x1="22.8061" y1="47.386" x2="21.58" y2="47.2725" stroke="#DADADA" stroke-width="0.5" stroke-linecap="round"/>
</g>
<defs>
<clipPath id="clip0_2460_7170">
<rect width="48" height="48" rx="24" fill="white"/>
</clipPath>
</defs>
</svg>
